<?xml version="1.0" encoding="UTF-8" standalone="no"?>
<!-- Created with Inkscape (http://www.inkscape.org/) -->

<svg
   width="38.907833mm"
   height="39.91832mm"
   viewBox="0 0 38.907833 39.91832"
   version="1.1"
   id="svg5"
   xml:space="preserve"
   inkscape:version="1.2.2 (b0a8486541, 2022-12-01)"
   sodipodi:docname="logo_FERRIX_engrenage_only.svg"
   xmlns:inkscape="http://www.inkscape.org/namespaces/inkscape"
   xmlns:sodipodi="http://sodipodi.sourceforge.net/DTD/sodipodi-0.dtd"
   xmlns="http://www.w3.org/2000/svg"
   xmlns:svg="http://www.w3.org/2000/svg"><sodipodi:namedview
     id="namedview7"
     pagecolor="#ffffff"
     bordercolor="#000000"
     borderopacity="0.25"
     inkscape:showpageshadow="2"
     inkscape:pageopacity="0.0"
     inkscape:pagecheckerboard="0"
     inkscape:deskcolor="#d1d1d1"
     inkscape:document-units="mm"
     showgrid="false"
     inkscape:zoom="0.70710678"
     inkscape:cx="-343.65389"
     inkscape:cy="-16.263456"
     inkscape:window-width="1916"
     inkscape:window-height="1038"
     inkscape:window-x="3840"
     inkscape:window-y="40"
     inkscape:window-maximized="1"
     inkscape:current-layer="layer1" /><defs
     id="defs2" /><g
     inkscape:label="Calque 1"
     inkscape:groupmode="layer"
     id="layer1"
     transform="translate(-61.591489,-114.26682)"><path
       style="fill:#f15012;fill-opacity:1;stroke-width:0.0678306"
       d="m 84.528662,151.86193 c 0.25337,-1.27776 0.49571,-2.35771 0.53853,-2.3999 0.0428,-0.0422 0.37969,-0.17583 0.7486,-0.297 0.75784,-0.24892 1.518,-0.58775 2.3455,-1.04547 l 0.56419,-0.31207 0.30853,0.18081 c 0.169689,0.0994 1.054949,0.67975 1.967239,1.28956 0.91229,0.60981 1.6948,1.10875 1.73889,1.10875 0.10444,0 4.17352,-4.10018 4.17352,-4.20542 0,-0.0887 -0.65597,-1.15384 -1.35764,-2.20457 -0.24913,-0.37307 -0.62646,-0.95916 -0.8385,-1.30242 l -0.38554,-0.62413 0.26879,-0.52899 c 0.367,-0.72227 0.76036,-1.68112 1.02911,-2.50851 l 0.22435,-0.69071 0.91974,-0.21793 c 0.50586,-0.11986 1.54548,-0.35847 2.31027,-0.53023 l 1.390519,-0.31231 0.0177,-3.03063 c 0.0166,-2.84343 0.0103,-3.03276 -0.10174,-3.06516 -0.33381,-0.0966 -1.549239,-0.3627 -3.160089,-0.69199 -0.64064,-0.13096 -1.21748,-0.25397 -1.28185,-0.27336 -0.0795,-0.0239 -0.18344,-0.25042 -0.32405,-0.70607 -0.23744,-0.76945 -0.63488,-1.7486 -1.02349,-2.52151 l -0.26855,-0.53412 0.18469,-0.32027 c 0.10159,-0.17614 0.61518,-0.99178 1.14132,-1.81253 1.2934,-2.01763 1.27267,-1.9817 1.20853,-2.09477 -0.13638,-0.24041 -4.06098,-4.17957 -4.16413,-4.17957 -0.0636,0 -0.30715,0.141 -0.54124,0.31332 -0.59839,0.44051 -3.331979,2.26425 -3.393859,2.26425 -0.0281,0 -0.38538,-0.16608 -0.79386,-0.36906 -0.9332,-0.46372 -1.89464,-0.87159 -2.42207,-1.02751 -0.22384,-0.0662 -0.44315,-0.15293 -0.48735,-0.1928 -0.0442,-0.0399 -0.15752,-0.46929 -0.25181,-0.95428 -0.0943,-0.48499 -0.2834,-1.41596 -0.42023,-2.06883 -0.13684,-0.65287 -0.26771,-1.30913 -0.29084,-1.45836 l -0.042,-0.27132 h -3.016306 -3.01632 l -0.0558,0.30523 c -0.0307,0.16788 -0.14444,0.70205 -0.25278,1.18704 -0.20953,0.93793 -0.25752,1.16485 -0.5153,2.43621 -0.0901,0.44455 -0.17702,0.82142 -0.19309,0.83749 -0.0161,0.0161 -0.32895,0.13004 -0.6953,0.25328 -0.84052,0.28276 -1.73494,0.67883 -2.41944,1.07138 l -0.53239,0.30533 -1.09554,-0.71554 c -0.60255,-0.39355 -1.4805,-0.9856 -1.951,-1.31568 -0.4705,-0.33008 -0.88892,-0.60015 -0.92981,-0.60015 -0.0941,0 -3.7944,3.71149 -4.13693,4.14941 -0.0764,0.0976 -0.04,0.1923 0.26087,0.67831 0.45411,0.7336 1.12828,1.78314 1.74411,2.71516 0.27048,0.40936 0.49177,0.77282 0.49177,0.8077 0,0.0349 -0.11854,0.29931 -0.26343,0.58761 -0.39548,0.78692 -0.61137,1.31162 -0.9542,2.31913 -0.29378,0.86337 -0.32175,0.91552 -0.51313,0.95654 -0.11132,0.0239 -1.10286,0.23199 -2.20341,0.4625 -1.10055,0.23051 -2.04679,0.44439 -2.10275,0.47529 -0.0875,0.0483 -0.10368,0.44429 -0.11555,2.82985 -0.008,1.52551 0.003,2.8805 0.0231,3.01107 l 0.0369,0.23741 1.56205,0.33272 c 0.85913,0.183 1.88655,0.41192 2.28316,0.50873 l 0.72109,0.17601 0.25127,0.74516 c 0.1382,0.40983 0.30379,0.86769 0.36799,1.01746 0.24686,0.57595 0.43909,1.00307 0.67811,1.50676 0.22412,0.47228 0.23893,0.53741 0.15364,0.67552 -0.29194,0.47272 -1.39709,2.18533 -1.9093,2.95875 -0.32668,0.49328 -0.58613,0.93515 -0.57656,0.98194 0.01,0.0468 0.93063,1.0185 2.0468,2.15934 1.59807,1.6334 2.05942,2.06835 2.17058,2.04642 0.0776,-0.0153 0.98964,-0.59653 2.02666,-1.2916 l 1.88548,-1.26376 1.23473,0.60033 c 0.67909,0.33018 1.51603,0.68753 1.85985,0.79411 l 0.62513,0.19379 0.0755,0.37307 c 0.17947,0.88727 0.89059,4.24701 0.91525,4.3242 0.0211,0.0661 0.68831,0.0848 3.03484,0.0848 h 3.007746 z m -4.979636,0.39801 c 0,-0.0827 -0.88413,-4.34017 -0.90581,-4.36185 -0.0145,-0.0145 -0.31259,-0.10194 -0.6625,-0.19436 -1.35347,-0.35753 -2.88471,-1.01395 -3.90521,-1.6741 -0.26254,-0.16984 -0.54426,-0.34462 -0.62605,-0.38839 -0.13423,-0.0718 -0.32769,0.0406 -1.98731,1.15546 -1.42032,0.95407 -1.86244,1.22001 -1.94339,1.16895 -0.0576,-0.0363 -0.52663,-0.51032 -1.04222,-1.05325 l -0.93743,-0.98716 1.15925,-1.8445 c 0.63759,-1.01448 1.17596,-1.88802 1.19637,-1.94121 0.0204,-0.0532 -0.0814,-0.28734 -0.2263,-0.52034 -0.79778,-1.28304 -1.45015,-2.94451 -1.78045,-4.53453 l -0.079,-0.38023 -1.16741,-0.28227 c -0.64207,-0.15524 -1.59161,-0.37273 -2.11008,-0.48331 -0.51847,-0.11058 -0.95549,-0.21386 -0.97116,-0.22953 -0.05,-0.05 -0.0177,-2.91982 0.0334,-2.96468 0.027,-0.0237 0.59849,-0.15306 1.27001,-0.28749 1.87173,-0.37471 2.84417,-0.59051 2.89588,-0.64265 0.0259,-0.0261 0.12266,-0.36789 0.21514,-0.75961 0.35977,-1.52379 0.88824,-2.86761 1.62044,-4.1205 0.2707,-0.46319 0.31443,-0.58272 0.25432,-0.69505 -0.0576,-0.10761 -1.96123,-3.14718 -2.25804,-3.60544 -0.0601,-0.0928 0.0992,-0.29176 0.93768,-1.17176 0.59177,-0.62105 1.04682,-1.0459 1.09885,-1.02594 0.094,0.0361 2.81825,1.86671 3.34765,2.24954 l 0.31141,0.22519 0.53648,-0.33911 c 1.23628,-0.78147 2.62684,-1.40035 3.8822,-1.72779 0.4598,-0.11993 0.86742,-0.24948 0.90582,-0.28788 0.0705,-0.0705 0.25399,-0.88335 0.42442,-1.88034 0.051,-0.29846 0.14112,-0.74876 0.20023,-1.00066 0.0591,-0.25191 0.12294,-0.54189 0.14184,-0.64439 0.0189,-0.10251 0.0727,-0.339 0.11965,-0.52553 l 0.0853,-0.33916 1.47066,-0.0162 1.470656,-0.0162 0.0747,0.38928 c 0.0411,0.2141 0.10308,0.51137 0.13773,0.6606 0.0347,0.14923 0.18897,0.94285 0.34292,1.7636 0.15394,0.82075 0.28944,1.52503 0.30109,1.56507 0.0117,0.04 0.35235,0.15795 0.7571,0.26202 1.39494,0.35864 2.7447,0.94459 3.989,1.73167 0.29693,0.18782 0.57177,0.3415 0.61076,0.3415 0.10197,0 0.965929,-0.55365 2.435599,-1.56079 0.96878,-0.66388 1.30686,-0.86267 1.39053,-0.81758 0.0608,0.0328 0.38275,0.34474 0.71546,0.69328 0.3327,0.34854 0.75437,0.78928 0.93704,0.97943 l 0.33212,0.34571 -0.19651,0.33259 c -0.25666,0.43439 -1.13388,1.83784 -1.72118,2.75368 -0.25581,0.39893 -0.46512,0.75671 -0.46512,0.79506 0,0.0383 0.14064,0.30717 0.31253,0.59737 0.84928,1.43382 1.42052,2.88715 1.72199,4.38106 0.0907,0.44952 0.10164,0.45723 0.88219,0.62216 0.27981,0.0591 0.76819,0.16626 1.08529,0.23809 0.31711,0.0718 0.8818,0.19549 1.25487,0.2748 0.37307,0.0793 0.79484,0.17388 0.93728,0.21016 l 0.25897,0.066 -0.0257,1.45298 c -0.0141,0.79915 -0.0404,1.46771 -0.0584,1.48569 -0.018,0.018 -0.39767,0.11079 -0.84375,0.20627 -0.44607,0.0955 -1.39046,0.31799 -2.09863,0.4945 l -1.28757,0.32093 -0.21398,0.84789 c -0.34165,1.35375 -0.97521,2.87774 -1.67784,4.03592 -0.1358,0.22384 -0.24698,0.43156 -0.24708,0.4616 -7e-5,0.03 0.21879,0.39633 0.48642,0.81397 1.05296,1.64319 1.88748,2.99524 1.88748,3.05802 0,0.0363 -0.4537,0.51964 -1.00822,1.07416 l -1.00822,1.00822 -1.87718,-1.23112 -1.877179,-1.23111 -0.79441,0.47376 c -0.43693,0.26056 -1.01856,0.58611 -1.29252,0.72343 -0.79883,0.40043 -2.2428,0.90628 -2.90648,1.01821 -0.33662,0.0568 -0.3954,0.1185 -0.45544,0.47826 -0.22148,1.32697 -0.71685,3.77036 -0.7934,3.91339 -0.0601,0.11231 -0.18701,0.12253 -1.521546,0.12253 -0.80078,0 -1.45597,-0.0117 -1.45597,-0.0259 z m 0.54264,-6.34056 v -0.93204 l -0.5596,-0.082 c -1.2014,-0.17598 -2.31355,-0.55082 -3.3868,-1.14149 -2.52731,-1.39093 -4.44121,-3.8762 -5.16424,-6.70598 -0.55617,-2.17673 -0.45677,-4.52227 0.27898,-6.58267 0.33724,-0.94442 0.59121,-1.44444 1.18608,-2.33511 0.59981,-0.89807 1.13273,-1.50462 1.87602,-2.13524 1.61606,-1.37111 3.42599,-2.18353 5.44925,-2.44602 l 0.32408,-0.042 -0.0188,-0.92824 -0.0188,-0.92823 -0.37306,0.0195 c -1.60631,0.084 -3.69138,0.84962 -5.36553,1.97018 -2.82501,1.89087 -4.69626,4.79461 -5.36094,8.31892 -0.21738,1.15265 -0.24584,2.80225 -0.0691,4.00365 0.46385,3.15242 1.9589,5.97635 4.17967,7.89475 1.45953,1.26081 2.9255,2.0619 4.71785,2.57807 0.7253,0.20888 2.16216,0.48578 2.25413,0.4344 0.028,-0.0156 0.0509,-0.44783 0.0509,-0.96045 z m -0.85562,-4.92016 0.008,-0.9425 0.46267,-0.12692 c 0.56692,-0.15552 0.93528,-0.33685 1.33484,-0.65708 0.36788,-0.29486 0.41742,-0.35325 0.679616,-0.80094 0.76424,-1.30492 0.54593,-3.0885 -0.498986,-4.07674 -0.45582,-0.43109 -1.07785,-0.74617 -2.11576,-1.07168 -0.96471,-0.30257 -1.8289,-0.65616 -2.01501,-0.82448 -0.35646,-0.32235 -0.49472,-0.99948 -0.29877,-1.46313 0.44733,-1.05843 2.17458,-1.12693 3.61142,-0.14323 0.23942,0.16392 0.44783,0.29803 0.46312,0.29803 0.0546,0 1.056166,-1.45037 1.056166,-1.52936 0,-0.11205 -0.856226,-0.67521 -1.404676,-0.92388 -0.25052,-0.1136 -0.6398,-0.24419 -0.86506,-0.29022 l -0.40957,-0.0837 v -0.84179 c 0,-0.46299 -0.0246,-0.87977 -0.0546,-0.92618 -0.0674,-0.10412 -1.72641,-0.0989 -1.79102,0.006 -0.0229,0.0371 -0.037,0.45428 -0.0314,0.92702 l 0.0103,0.85953 -0.42304,0.11762 c -1.69544,0.47137 -2.58713,1.81346 -2.37103,3.56863 0.18374,1.49228 0.91736,2.18321 3.03279,2.85635 1.82308,0.58011 2.32001,0.93077 2.39282,1.6885 0.0923,0.9608 -0.54137,1.58268 -1.65148,1.62071 -0.85892,0.0294 -1.72101,-0.29575 -2.54553,-0.96015 l -0.42447,-0.34205 -0.20837,0.23964 c -0.2401,0.27613 -0.98842,1.30444 -0.98842,1.35825 0,0.0817 0.94969,0.7284 1.40256,0.95511 0.26776,0.13405 0.77326,0.32318 1.12332,0.42029 l 0.63647,0.17656 0.006,0.82557 c 0.004,0.45406 0.009,0.86274 0.0128,0.9082 0.005,0.0709 1.01701,0.14372 1.72835,0.12434 0.11865,-0.003 0.12848,-0.0718 0.13566,-0.94597 z m 10.691055,-1.83857 v -0.91572 h -3.221949 -3.22196 v 0.91572 0.91571 h 3.22196 3.221949 z m 0.81116,-10.98698 c 0.36404,-0.20432 0.69892,-0.41612 0.74419,-0.47067 0.16331,-0.19677 -1.01323,-1.74657 -2.11782,-2.78972 -1.446759,-1.36626 -3.067409,-2.29527 -5.026629,-2.88141 -0.71109,-0.21273 -2.13463,-0.44941 -2.30647,-0.38347 -0.10111,0.0388 -0.10166,0.0588 -0.0468,1.6866 0.006,0.16561 0.0358,0.18602 0.32835,0.22198 0.57976,0.0712 1.6691,0.32038 2.15362,0.49253 0.79184,0.28134 2.01059,0.94823 2.75675,1.50848 0.84122,0.63162 1.7701,1.58558 2.330539,2.39349 0.22384,0.32267 0.43294,0.58825 0.46466,0.59018 0.0317,0.002 0.35553,-0.16367 0.71957,-0.36799 z"
       id="path364"
       sodipodi:nodetypes="csssccssssscsscsscscscsscsssssssssssccccsscssscssscssssscsscccsscssssscssscssccsscccscssssscsscscssssssssssscscssssssccccscscsssscsscsssssscscccssscsssssscccssssssccccssssssccccssscsscccccsssssssssssscsccccsssssscsssscccccccccccccccsssssccssscss" /></g></svg>
