<svg xmlns="http://www.w3.org/2000/svg" xml:space="preserve" width="373.461" height="150.872" viewBox="0 0 98.812 39.918"><path d="M84.529 151.862c.253-1.278.495-2.358.538-2.4s.38-.176.749-.297a13.5 13.5 0 0 0 2.345-1.045l.564-.313.309.181c.17.1 1.055.68 1.967 1.29s1.695 1.109 1.74 1.109c.104 0 4.173-4.1 4.173-4.206 0-.089-.656-1.154-1.358-2.204-.25-.373-.626-.96-.838-1.303l-.386-.624.269-.529c.367-.722.76-1.681 1.029-2.508l.224-.691.92-.218c.506-.12 1.545-.359 2.31-.53l1.39-.313.018-3.03c.017-2.844.01-3.033-.101-3.065-.334-.097-1.55-.363-3.16-.692a46 46 0 0 1-1.282-.274c-.08-.024-.184-.25-.324-.706a18 18 0 0 0-1.024-2.521l-.268-.534.184-.32c.102-.177.616-.993 1.142-1.813 1.293-2.018 1.272-1.982 1.208-2.095-.136-.24-4.06-4.18-4.164-4.18-.063 0-.307.141-.541.314-.599.44-3.332 2.264-3.394 2.264-.028 0-.385-.166-.794-.37-.933-.463-1.894-.87-2.422-1.027-.224-.066-.443-.153-.487-.192s-.158-.47-.252-.955-.283-1.416-.42-2.068a53 53 0 0 1-.291-1.459l-.042-.271h-6.033l-.056.305c-.03.168-.144.702-.252 1.187a94 94 0 0 0-.516 2.436c-.09.445-.177.822-.193.838s-.329.13-.695.253c-.84.283-1.735.679-2.42 1.071l-.532.306-1.095-.716a87 87 0 0 1-1.951-1.315c-.47-.33-.89-.6-.93-.6-.094 0-3.795 3.71-4.137 4.149-.077.097-.04.192.26.678.455.734 1.129 1.783 1.745 2.715.27.41.492.773.492.808s-.119.3-.264.588c-.395.787-.611 1.311-.954 2.319-.294.863-.322.915-.513.956l-2.204.463c-1.1.23-2.046.444-2.102.475-.088.048-.104.444-.116 2.83-.008 1.525.003 2.88.023 3.011l.037.237 1.562.333c.86.183 1.887.412 2.283.509l.721.176.252.745c.138.41.303.868.368 1.017a40 40 0 0 0 .678 1.507c.224.473.239.538.153.676-.292.472-1.397 2.185-1.909 2.959-.327.493-.586.935-.576.981.01.047.93 1.019 2.046 2.16 1.598 1.633 2.06 2.068 2.17 2.046.079-.015.99-.596 2.028-1.291l1.885-1.264 1.235.6c.679.33 1.516.688 1.86.794l.625.194.075.373c.18.887.89 4.247.916 4.324.02.066.688.085 3.034.085h3.008zm-4.98.398c0-.083-.884-4.34-.906-4.362-.014-.014-.312-.102-.662-.194-1.354-.358-2.885-1.014-3.905-1.674-.263-.17-.545-.345-.627-.389-.134-.072-.327.04-1.987 1.156-1.42.954-1.862 1.22-1.943 1.169-.058-.037-.527-.51-1.042-1.054l-.938-.987 1.16-1.844c.637-1.015 1.175-1.888 1.196-1.941s-.082-.288-.227-.52c-.797-1.284-1.45-2.945-1.78-4.535l-.079-.38-1.167-.283a98 98 0 0 0-2.11-.483c-.519-.11-.956-.214-.972-.23-.05-.05-.017-2.92.034-2.964.027-.024.598-.153 1.27-.288 1.871-.375 2.844-.59 2.896-.642.026-.027.122-.368.215-.76.36-1.524.888-2.868 1.62-4.12.27-.464.315-.583.255-.696a361 361 0 0 0-2.259-3.605c-.06-.093.1-.292.938-1.172.592-.62 1.047-1.046 1.099-1.026.094.036 2.818 1.867 3.348 2.25l.311.225.537-.34c1.236-.78 2.626-1.4 3.882-1.727.46-.12.867-.25.906-.288.07-.07.254-.883.424-1.88.051-.299.141-.749.2-1 .06-.253.123-.543.142-.645.019-.103.073-.34.12-.526l.085-.339 1.47-.016 1.471-.016.075.389c.041.214.103.511.138.66.034.15.189.943.343 1.764.154.82.29 1.525.3 1.565.012.04.353.158.758.262a14 14 0 0 1 3.989 1.732c.297.188.572.341.61.341.103 0 .967-.553 2.436-1.56.969-.664 1.307-.863 1.39-.818.062.033.384.345.716.693l.937.98.332.345-.196.333a137 137 0 0 1-1.721 2.754c-.256.399-.465.756-.465.795 0 .038.14.307.312.597.85 1.434 1.42 2.887 1.722 4.381.09.45.102.457.882.622.28.06.768.167 1.086.238.317.072.881.196 1.254.275.374.08.795.174.938.21l.259.066-.026 1.453c-.014.8-.04 1.468-.058 1.486s-.398.11-.844.206a82 82 0 0 0-2.099.495l-1.287.32-.214.849c-.342 1.353-.976 2.877-1.678 4.036-.136.223-.247.431-.247.461s.219.397.486.814c1.053 1.643 1.888 2.995 1.888 3.058 0 .036-.454.52-1.009 1.074l-1.008 1.009-1.877-1.232-1.877-1.23-.795.473a26 26 0 0 1-1.292.724c-.799.4-2.243.906-2.907 1.018-.336.057-.395.118-.455.478-.221 1.327-.717 3.77-.793 3.913-.06.113-.187.123-1.522.123-.8 0-1.456-.012-1.456-.026m.543-6.34v-.933l-.56-.082a9.9 9.9 0 0 1-3.387-1.141c-2.527-1.391-4.44-3.876-5.164-6.706-.556-2.177-.457-4.522.279-6.583.337-.944.591-1.444 1.186-2.335.6-.898 1.133-1.505 1.876-2.135 1.616-1.371 3.426-2.184 5.45-2.446l.323-.042-.018-.928-.02-.929-.372.02c-1.607.084-3.692.85-5.366 1.97-2.825 1.89-4.696 4.795-5.36 8.319-.218 1.153-.247 2.802-.07 4.004.464 3.152 1.96 5.976 4.18 7.894 1.46 1.261 2.925 2.062 4.718 2.578.725.21 2.162.486 2.254.435.028-.016.05-.448.05-.96m-.856-4.92.008-.943.463-.127c.567-.156.935-.337 1.335-.657.367-.295.417-.354.68-.801.763-1.305.545-3.089-.5-4.077-.456-.431-1.078-.746-2.116-1.072-.964-.302-1.828-.656-2.015-.824-.356-.322-.494-1-.298-1.463.447-1.059 2.174-1.127 3.611-.143.24.163.448.298.463.298.055 0 1.056-1.45 1.056-1.53 0-.112-.856-.675-1.404-.924a5 5 0 0 0-.865-.29l-.41-.084v-.841c0-.463-.025-.88-.055-.927-.067-.104-1.726-.098-1.79.006-.023.038-.038.455-.032.927l.01.86-.423.118c-1.695.471-2.587 1.813-2.37 3.568.183 1.492.917 2.183 3.032 2.857 1.823.58 2.32.93 2.393 1.688.092.96-.542 1.583-1.652 1.62-.859.03-1.72-.295-2.545-.96l-.425-.341-.208.24c-.24.275-.988 1.304-.988 1.357 0 .082.95.729 1.402.956a7.6 7.6 0 0 0 1.123.42l.637.176.006.826c.004.454.009.863.013.908.005.071 1.017.144 1.728.125.119-.003.129-.072.136-.946m10.691-1.84v-.915h-6.444v1.831h6.444zm.811-10.986c.364-.205.7-.416.744-.471.164-.197-1.013-1.747-2.117-2.79-1.447-1.366-3.068-2.295-5.027-2.881-.711-.213-2.135-.45-2.306-.384-.102.04-.102.06-.047 1.687.006.166.036.186.328.222.58.071 1.67.32 2.154.493.792.28 2.01.948 2.756 1.508.842.632 1.77 1.586 2.331 2.393.224.323.433.589.465.59.031.003.355-.163.72-.367m18.453 10.546v-3.324h3.938l-.019-1.034-.019-1.035-1.95-.018-1.95-.018v-4.676l2.357-.018 2.357-.018v-2.103h-7.523l-.007 7.733c-.004 4.253.004 7.756.018 7.784s.649.05 1.412.05h1.386zm13.905 2.238v-1.085h-4.87l.002-2.405.002-2.405.28-.033c.154-.018 1.007-.027 1.897-.02s1.646-.005 1.68-.026c.036-.022.056-.49.045-1.085l-.019-1.047-1.953-.018-1.953-.018.013-2.101.012-2.102h4.661v-2.171h-7.461v7.756c0 4.265.02 7.775.045 7.8s1.75.045 3.832.045h3.788zm4.388-1.865c.007-1.604.015-3.002.017-3.106l.004-.19.48.02.48.02.391 1.051c.216.579.605 1.586.866 2.239.26.653.624 1.576.807 2.051l.334.865h1.464c.805 0 1.482-.017 1.503-.04.022-.02-.061-.257-.184-.525a36 36 0 0 1-.514-1.198c-.16-.392-.471-1.14-.693-1.662-.619-1.458-1.135-2.755-1.135-2.85 0-.047.084-.106.186-.131.322-.078.88-.494 1.108-.825.448-.651.473-.844.473-3.67 0-1.674-.026-2.632-.077-2.82-.241-.898-.807-1.456-1.774-1.75-.39-.118-.671-.129-3.495-.13h-3.07l.003 7.802.003 7.802 1.406-.018 1.405-.019.013-2.916zm.053-5.383c-.017-.018-.032-1.19-.032-2.604v-2.572l1.17.023c1.217.023 1.357.054 1.538.343.107.172.112 4.33.006 4.53-.156.291-.406.343-1.563.327-.598-.009-1.1-.03-1.118-.047zm10.55 5.213v-3.12h.5c.483 0 .503.007.574.187a629 629 0 0 1 1.416 3.747c.158.427.706 1.842.836 2.155l.064.154 1.476-.018c.94-.012 1.47-.043 1.46-.086a49 49 0 0 0-.73-1.832c-.28-.624-1.56-3.728-1.701-4.122l-.092-.255.433-.205c.748-.353 1.18-.989 1.33-1.958.123-.794.049-4.885-.097-5.34-.237-.74-.76-1.29-1.516-1.595-.391-.158-.4-.158-3.563-.159-1.744 0-3.171.023-3.171.051v15.516h2.78zm.288-5.21-.288-.02v-5.163l1.187.026 1.187.026.22.22.22.22v2.051c0 1.128-.023 2.134-.051 2.236-.097.346-.305.414-1.294.42a24 24 0 0 1-1.181-.016m10.443.53-.02-7.767-1.387-.018-1.388-.018.003 7.759c0 4.267.022 7.779.046 7.803.025.024.657.036 1.406.026l1.36-.018zm4.466 7.546c.045-.14.234-.651.42-1.136.521-1.351.62-1.615 1.036-2.747.575-1.564.496-1.52.877-.498a586 586 0 0 0 1.676 4.449l.07.186h1.52c1.202 0 1.52-.018 1.52-.088a.25.25 0 0 0-.062-.152c-.034-.036-.206-.4-.382-.811a155 155 0 0 0-1.183-2.713l-.429-.984-.857-1.961c-.3-.687-.546-1.288-.546-1.335 0-.072.55-1.426 2.05-5.047.425-1.027 1.002-2.456 1.002-2.484 0-.014-.664-.025-1.475-.025l-1.476.001-.248.729c-.396 1.161-1.41 4.11-1.452 4.221-.059.156-.137-.02-.576-1.285-.214-.618-.503-1.444-.643-1.835-.14-.392-.339-.957-.441-1.255l-.187-.543-1.465-.018c-1.17-.015-1.465 0-1.465.07 0 .049.445 1.156.99 2.46a492 492 0 0 1 1.856 4.502c.13.31.192.556.166.644-.07.23-.86 2.093-2.622 6.18l-.708 1.645c-.028.066.289.084 1.458.084h1.494z" style="fill:#f15012;fill-opacity:1;stroke-width:.0678306" transform="translate(-61.591 -114.267)"/></svg>