<?xml version="1.0" encoding="UTF-8" standalone="no"?>
<!-- Created with Inkscape (http://www.inkscape.org/) -->

<svg
   width="98.811554mm"
   height="39.91832mm"
   viewBox="0 0 98.811554 39.91832"
   version="1.1"
   id="svg5"
   xml:space="preserve"
   inkscape:version="1.2.2 (b0a8486541, 2022-12-01)"
   sodipodi:docname="logo_FERRIX.svg"
   xmlns:inkscape="http://www.inkscape.org/namespaces/inkscape"
   xmlns:sodipodi="http://sodipodi.sourceforge.net/DTD/sodipodi-0.dtd"
   xmlns="http://www.w3.org/2000/svg"
   xmlns:svg="http://www.w3.org/2000/svg"><sodipodi:namedview
     id="namedview7"
     pagecolor="#ffffff"
     bordercolor="#000000"
     borderopacity="0.25"
     inkscape:showpageshadow="2"
     inkscape:pageopacity="0.0"
     inkscape:pagecheckerboard="0"
     inkscape:deskcolor="#d1d1d1"
     inkscape:document-units="mm"
     showgrid="false"
     inkscape:zoom="0.70710678"
     inkscape:cx="-343.65389"
     inkscape:cy="-16.263456"
     inkscape:window-width="1916"
     inkscape:window-height="1038"
     inkscape:window-x="3840"
     inkscape:window-y="40"
     inkscape:window-maximized="1"
     inkscape:current-layer="layer1" /><defs
     id="defs2" /><g
     inkscape:label="Calque 1"
     inkscape:groupmode="layer"
     id="layer1"
     transform="translate(-61.591489,-114.26682)"><path
       style="fill:#f15012;fill-opacity:1;stroke-width:0.0678306"
       d="m 84.528662,151.86193 c 0.25337,-1.27776 0.49571,-2.35771 0.53853,-2.3999 0.0428,-0.0422 0.37969,-0.17583 0.7486,-0.297 0.75784,-0.24892 1.518,-0.58775 2.3455,-1.04547 l 0.56419,-0.31207 0.30853,0.18081 c 0.169689,0.0994 1.054949,0.67975 1.967239,1.28956 0.91229,0.60981 1.6948,1.10875 1.73889,1.10875 0.10444,0 4.17352,-4.10018 4.17352,-4.20542 0,-0.0887 -0.65597,-1.15384 -1.35764,-2.20457 -0.24913,-0.37307 -0.62646,-0.95916 -0.8385,-1.30242 l -0.38554,-0.62413 0.26879,-0.52899 c 0.367,-0.72227 0.76036,-1.68112 1.02911,-2.50851 l 0.22435,-0.69071 0.91974,-0.21793 c 0.50586,-0.11986 1.54548,-0.35847 2.31027,-0.53023 l 1.390519,-0.31231 0.0177,-3.03063 c 0.0166,-2.84343 0.0103,-3.03276 -0.10174,-3.06516 -0.33381,-0.0966 -1.549239,-0.3627 -3.160089,-0.69199 -0.64064,-0.13096 -1.21748,-0.25397 -1.28185,-0.27336 -0.0795,-0.0239 -0.18344,-0.25042 -0.32405,-0.70607 -0.23744,-0.76945 -0.63488,-1.7486 -1.02349,-2.52151 l -0.26855,-0.53412 0.18469,-0.32027 c 0.10159,-0.17614 0.61518,-0.99178 1.14132,-1.81253 1.2934,-2.01763 1.27267,-1.9817 1.20853,-2.09477 -0.13638,-0.24041 -4.06098,-4.17957 -4.16413,-4.17957 -0.0636,0 -0.30715,0.141 -0.54124,0.31332 -0.59839,0.44051 -3.331979,2.26425 -3.393859,2.26425 -0.0281,0 -0.38538,-0.16608 -0.79386,-0.36906 -0.9332,-0.46372 -1.89464,-0.87159 -2.42207,-1.02751 -0.22384,-0.0662 -0.44315,-0.15293 -0.48735,-0.1928 -0.0442,-0.0399 -0.15752,-0.46929 -0.25181,-0.95428 -0.0943,-0.48499 -0.2834,-1.41596 -0.42023,-2.06883 -0.13684,-0.65287 -0.26771,-1.30913 -0.29084,-1.45836 l -0.042,-0.27132 h -3.016306 -3.01632 l -0.0558,0.30523 c -0.0307,0.16788 -0.14444,0.70205 -0.25278,1.18704 -0.20953,0.93793 -0.25752,1.16485 -0.5153,2.43621 -0.0901,0.44455 -0.17702,0.82142 -0.19309,0.83749 -0.0161,0.0161 -0.32895,0.13004 -0.6953,0.25328 -0.84052,0.28276 -1.73494,0.67883 -2.41944,1.07138 l -0.53239,0.30533 -1.09554,-0.71554 c -0.60255,-0.39355 -1.4805,-0.9856 -1.951,-1.31568 -0.4705,-0.33008 -0.88892,-0.60015 -0.92981,-0.60015 -0.0941,0 -3.7944,3.71149 -4.13693,4.14941 -0.0764,0.0976 -0.04,0.1923 0.26087,0.67831 0.45411,0.7336 1.12828,1.78314 1.74411,2.71516 0.27048,0.40936 0.49177,0.77282 0.49177,0.8077 0,0.0349 -0.11854,0.29931 -0.26343,0.58761 -0.39548,0.78692 -0.61137,1.31162 -0.9542,2.31913 -0.29378,0.86337 -0.32175,0.91552 -0.51313,0.95654 -0.11132,0.0239 -1.10286,0.23199 -2.20341,0.4625 -1.10055,0.23051 -2.04679,0.44439 -2.10275,0.47529 -0.0875,0.0483 -0.10368,0.44429 -0.11555,2.82985 -0.008,1.52551 0.003,2.8805 0.0231,3.01107 l 0.0369,0.23741 1.56205,0.33272 c 0.85913,0.183 1.88655,0.41192 2.28316,0.50873 l 0.72109,0.17601 0.25127,0.74516 c 0.1382,0.40983 0.30379,0.86769 0.36799,1.01746 0.24686,0.57595 0.43909,1.00307 0.67811,1.50676 0.22412,0.47228 0.23893,0.53741 0.15364,0.67552 -0.29194,0.47272 -1.39709,2.18533 -1.9093,2.95875 -0.32668,0.49328 -0.58613,0.93515 -0.57656,0.98194 0.01,0.0468 0.93063,1.0185 2.0468,2.15934 1.59807,1.6334 2.05942,2.06835 2.17058,2.04642 0.0776,-0.0153 0.98964,-0.59653 2.02666,-1.2916 l 1.88548,-1.26376 1.23473,0.60033 c 0.67909,0.33018 1.51603,0.68753 1.85985,0.79411 l 0.62513,0.19379 0.0755,0.37307 c 0.17947,0.88727 0.89059,4.24701 0.91525,4.3242 0.0211,0.0661 0.68831,0.0848 3.03484,0.0848 h 3.007746 z m -4.979636,0.39801 c 0,-0.0827 -0.88413,-4.34017 -0.90581,-4.36185 -0.0145,-0.0145 -0.31259,-0.10194 -0.6625,-0.19436 -1.35347,-0.35753 -2.88471,-1.01395 -3.90521,-1.6741 -0.26254,-0.16984 -0.54426,-0.34462 -0.62605,-0.38839 -0.13423,-0.0718 -0.32769,0.0406 -1.98731,1.15546 -1.42032,0.95407 -1.86244,1.22001 -1.94339,1.16895 -0.0576,-0.0363 -0.52663,-0.51032 -1.04222,-1.05325 l -0.93743,-0.98716 1.15925,-1.8445 c 0.63759,-1.01448 1.17596,-1.88802 1.19637,-1.94121 0.0204,-0.0532 -0.0814,-0.28734 -0.2263,-0.52034 -0.79778,-1.28304 -1.45015,-2.94451 -1.78045,-4.53453 l -0.079,-0.38023 -1.16741,-0.28227 c -0.64207,-0.15524 -1.59161,-0.37273 -2.11008,-0.48331 -0.51847,-0.11058 -0.95549,-0.21386 -0.97116,-0.22953 -0.05,-0.05 -0.0177,-2.91982 0.0334,-2.96468 0.027,-0.0237 0.59849,-0.15306 1.27001,-0.28749 1.87173,-0.37471 2.84417,-0.59051 2.89588,-0.64265 0.0259,-0.0261 0.12266,-0.36789 0.21514,-0.75961 0.35977,-1.52379 0.88824,-2.86761 1.62044,-4.1205 0.2707,-0.46319 0.31443,-0.58272 0.25432,-0.69505 -0.0576,-0.10761 -1.96123,-3.14718 -2.25804,-3.60544 -0.0601,-0.0928 0.0992,-0.29176 0.93768,-1.17176 0.59177,-0.62105 1.04682,-1.0459 1.09885,-1.02594 0.094,0.0361 2.81825,1.86671 3.34765,2.24954 l 0.31141,0.22519 0.53648,-0.33911 c 1.23628,-0.78147 2.62684,-1.40035 3.8822,-1.72779 0.4598,-0.11993 0.86742,-0.24948 0.90582,-0.28788 0.0705,-0.0705 0.25399,-0.88335 0.42442,-1.88034 0.051,-0.29846 0.14112,-0.74876 0.20023,-1.00066 0.0591,-0.25191 0.12294,-0.54189 0.14184,-0.64439 0.0189,-0.10251 0.0727,-0.339 0.11965,-0.52553 l 0.0853,-0.33916 1.47066,-0.0162 1.470656,-0.0162 0.0747,0.38928 c 0.0411,0.2141 0.10308,0.51137 0.13773,0.6606 0.0347,0.14923 0.18897,0.94285 0.34292,1.7636 0.15394,0.82075 0.28944,1.52503 0.30109,1.56507 0.0117,0.04 0.35235,0.15795 0.7571,0.26202 1.39494,0.35864 2.7447,0.94459 3.989,1.73167 0.29693,0.18782 0.57177,0.3415 0.61076,0.3415 0.10197,0 0.965929,-0.55365 2.435599,-1.56079 0.96878,-0.66388 1.30686,-0.86267 1.39053,-0.81758 0.0608,0.0328 0.38275,0.34474 0.71546,0.69328 0.3327,0.34854 0.75437,0.78928 0.93704,0.97943 l 0.33212,0.34571 -0.19651,0.33259 c -0.25666,0.43439 -1.13388,1.83784 -1.72118,2.75368 -0.25581,0.39893 -0.46512,0.75671 -0.46512,0.79506 0,0.0383 0.14064,0.30717 0.31253,0.59737 0.84928,1.43382 1.42052,2.88715 1.72199,4.38106 0.0907,0.44952 0.10164,0.45723 0.88219,0.62216 0.27981,0.0591 0.76819,0.16626 1.08529,0.23809 0.31711,0.0718 0.8818,0.19549 1.25487,0.2748 0.37307,0.0793 0.79484,0.17388 0.93728,0.21016 l 0.25897,0.066 -0.0257,1.45298 c -0.0141,0.79915 -0.0404,1.46771 -0.0584,1.48569 -0.018,0.018 -0.39767,0.11079 -0.84375,0.20627 -0.44607,0.0955 -1.39046,0.31799 -2.09863,0.4945 l -1.28757,0.32093 -0.21398,0.84789 c -0.34165,1.35375 -0.97521,2.87774 -1.67784,4.03592 -0.1358,0.22384 -0.24698,0.43156 -0.24708,0.4616 -7e-5,0.03 0.21879,0.39633 0.48642,0.81397 1.05296,1.64319 1.88748,2.99524 1.88748,3.05802 0,0.0363 -0.4537,0.51964 -1.00822,1.07416 l -1.00822,1.00822 -1.87718,-1.23112 -1.877179,-1.23111 -0.79441,0.47376 c -0.43693,0.26056 -1.01856,0.58611 -1.29252,0.72343 -0.79883,0.40043 -2.2428,0.90628 -2.90648,1.01821 -0.33662,0.0568 -0.3954,0.1185 -0.45544,0.47826 -0.22148,1.32697 -0.71685,3.77036 -0.7934,3.91339 -0.0601,0.11231 -0.18701,0.12253 -1.521546,0.12253 -0.80078,0 -1.45597,-0.0117 -1.45597,-0.0259 z m 0.54264,-6.34056 v -0.93204 l -0.5596,-0.082 c -1.2014,-0.17598 -2.31355,-0.55082 -3.3868,-1.14149 -2.52731,-1.39093 -4.44121,-3.8762 -5.16424,-6.70598 -0.55617,-2.17673 -0.45677,-4.52227 0.27898,-6.58267 0.33724,-0.94442 0.59121,-1.44444 1.18608,-2.33511 0.59981,-0.89807 1.13273,-1.50462 1.87602,-2.13524 1.61606,-1.37111 3.42599,-2.18353 5.44925,-2.44602 l 0.32408,-0.042 -0.0188,-0.92824 -0.0188,-0.92823 -0.37306,0.0195 c -1.60631,0.084 -3.69138,0.84962 -5.36553,1.97018 -2.82501,1.89087 -4.69626,4.79461 -5.36094,8.31892 -0.21738,1.15265 -0.24584,2.80225 -0.0691,4.00365 0.46385,3.15242 1.9589,5.97635 4.17967,7.89475 1.45953,1.26081 2.9255,2.0619 4.71785,2.57807 0.7253,0.20888 2.16216,0.48578 2.25413,0.4344 0.028,-0.0156 0.0509,-0.44783 0.0509,-0.96045 z m -0.85562,-4.92016 0.008,-0.9425 0.46267,-0.12692 c 0.56692,-0.15552 0.93528,-0.33685 1.33484,-0.65708 0.36788,-0.29486 0.41742,-0.35325 0.679616,-0.80094 0.76424,-1.30492 0.54593,-3.0885 -0.498986,-4.07674 -0.45582,-0.43109 -1.07785,-0.74617 -2.11576,-1.07168 -0.96471,-0.30257 -1.8289,-0.65616 -2.01501,-0.82448 -0.35646,-0.32235 -0.49472,-0.99948 -0.29877,-1.46313 0.44733,-1.05843 2.17458,-1.12693 3.61142,-0.14323 0.23942,0.16392 0.44783,0.29803 0.46312,0.29803 0.0546,0 1.056166,-1.45037 1.056166,-1.52936 0,-0.11205 -0.856226,-0.67521 -1.404676,-0.92388 -0.25052,-0.1136 -0.6398,-0.24419 -0.86506,-0.29022 l -0.40957,-0.0837 v -0.84179 c 0,-0.46299 -0.0246,-0.87977 -0.0546,-0.92618 -0.0674,-0.10412 -1.72641,-0.0989 -1.79102,0.006 -0.0229,0.0371 -0.037,0.45428 -0.0314,0.92702 l 0.0103,0.85953 -0.42304,0.11762 c -1.69544,0.47137 -2.58713,1.81346 -2.37103,3.56863 0.18374,1.49228 0.91736,2.18321 3.03279,2.85635 1.82308,0.58011 2.32001,0.93077 2.39282,1.6885 0.0923,0.9608 -0.54137,1.58268 -1.65148,1.62071 -0.85892,0.0294 -1.72101,-0.29575 -2.54553,-0.96015 l -0.42447,-0.34205 -0.20837,0.23964 c -0.2401,0.27613 -0.98842,1.30444 -0.98842,1.35825 0,0.0817 0.94969,0.7284 1.40256,0.95511 0.26776,0.13405 0.77326,0.32318 1.12332,0.42029 l 0.63647,0.17656 0.006,0.82557 c 0.004,0.45406 0.009,0.86274 0.0128,0.9082 0.005,0.0709 1.01701,0.14372 1.72835,0.12434 0.11865,-0.003 0.12848,-0.0718 0.13566,-0.94597 z m 10.691055,-1.83857 v -0.91572 h -3.221949 -3.22196 v 0.91572 0.91571 h 3.22196 3.221949 z m 0.81116,-10.98698 c 0.36404,-0.20432 0.69892,-0.41612 0.74419,-0.47067 0.16331,-0.19677 -1.01323,-1.74657 -2.11782,-2.78972 -1.446759,-1.36626 -3.067409,-2.29527 -5.026629,-2.88141 -0.71109,-0.21273 -2.13463,-0.44941 -2.30647,-0.38347 -0.10111,0.0388 -0.10166,0.0588 -0.0468,1.6866 0.006,0.16561 0.0358,0.18602 0.32835,0.22198 0.57976,0.0712 1.6691,0.32038 2.15362,0.49253 0.79184,0.28134 2.01059,0.94823 2.75675,1.50848 0.84122,0.63162 1.7701,1.58558 2.330539,2.39349 0.22384,0.32267 0.43294,0.58825 0.46466,0.59018 0.0317,0.002 0.35553,-0.16367 0.71957,-0.36799 z m 18.452729,10.54608 v -3.3237 h 1.96885 1.96886 l -0.0187,-1.03442 -0.0187,-1.03442 -1.95013,-0.018 -1.95013,-0.018 v -2.33824 -2.33823 l 2.35712,-0.0178 2.35711,-0.0178 v -1.05137 -1.05138 h -3.76142 -3.76141 l -0.007,7.73269 c -0.004,4.25298 0.004,7.75558 0.0178,7.78356 0.0136,0.028 0.64875,0.0509 1.41134,0.0509 h 1.38652 z m 13.90527,2.23841 v -1.08529 h -2.43492 -2.43492 l 0.002,-2.40515 0.002,-2.40515 0.27948,-0.0328 c 0.15372,-0.0181 1.00734,-0.027 1.89694,-0.0198 0.88961,0.007 1.64589,-0.005 1.68064,-0.026 0.0359,-0.0222 0.0551,-0.49004 0.0444,-1.08529 l -0.0188,-1.04624 -1.9529,-0.018 -1.95291,-0.018 0.0123,-2.10171 0.0123,-2.1017 h 2.33062 2.33062 v -1.08529 -1.08529 h -3.73068 -3.73068 v 7.7553 c 0,4.26541 0.0203,7.77565 0.0452,7.80051 0.0249,0.0249 1.74946,0.0452 3.83243,0.0452 h 3.7872 v -1.08529 z m 4.38807,-1.86534 c 0.007,-1.6042 0.0148,-3.002 0.017,-3.10623 l 0.004,-0.1895 0.47985,0.0199 0.47985,0.0199 0.39141,1.05137 c 0.21527,0.57826 0.60462,1.58554 0.86521,2.23841 0.26059,0.65287 0.62398,1.57613 0.80755,2.0517 l 0.33374,0.86467 h 1.46401 c 0.80521,0 1.48171,-0.0175 1.50332,-0.0391 0.0216,-0.0216 -0.0614,-0.25818 -0.18447,-0.52568 -0.1231,-0.26751 -0.35429,-0.80688 -0.51377,-1.1986 -0.15949,-0.39172 -0.47131,-1.13955 -0.69294,-1.66185 -0.61866,-1.45796 -1.13525,-2.75485 -1.13525,-2.85005 0,-0.0472 0.0839,-0.1062 0.18654,-0.13103 0.32139,-0.0778 0.87935,-0.49346 1.10742,-0.82495 0.44793,-0.65105 0.47275,-0.84362 0.47303,-3.66938 0,-1.67397 -0.0258,-2.63232 -0.0765,-2.82045 -0.24167,-0.89749 -0.80764,-1.4555 -1.7745,-1.74953 -0.39067,-0.1188 -0.67099,-0.12921 -3.49482,-0.12968 l -3.07009,-5.5e-4 0.003,7.80189 0.003,7.80189 1.40561,-0.0183 1.40562,-0.0183 0.013,-2.91672 z m 0.0528,-5.38325 c -0.0175,-0.0175 -0.0319,-1.18923 -0.0319,-2.60376 v -2.57186 l 1.17007,0.0226 c 1.21648,0.0235 1.35695,0.0548 1.53724,0.34354 0.1074,0.17199 0.11249,4.32977 0.006,4.52961 -0.15599,0.29147 -0.40563,0.34376 -1.56254,0.32728 -0.59759,-0.009 -1.10087,-0.0298 -1.11841,-0.0474 z m 10.54968,5.21367 v -3.12021 h 0.5005 c 0.48298,0 0.50307,0.007 0.57395,0.18654 0.11229,0.28516 1.23192,3.24829 1.41606,3.74764 0.15744,0.42694 0.70618,1.84204 0.83563,2.15494 l 0.0637,0.15395 1.47617,-0.0183 c 0.9396,-0.0116 1.47067,-0.0429 1.46106,-0.0861 -0.0179,-0.0806 -0.6,-1.5394 -0.73074,-1.83143 -0.2793,-0.62385 -1.56054,-3.72803 -1.70133,-4.12199 l -0.0914,-0.25566 0.43231,-0.20426 c 0.74838,-0.3536 1.18021,-0.98932 1.33014,-1.9582 0.12291,-0.79433 0.0487,-4.88539 -0.0969,-5.34048 -0.23669,-0.73984 -0.75944,-1.28987 -1.51581,-1.59491 -0.39135,-0.15783 -0.39923,-0.15818 -3.56319,-0.15831 -1.74404,-7e-5 -3.17102,0.0228 -3.17108,0.0507 -6e-5,0.028 0,3.53058 0,7.78356 v 7.73269 h 1.39053 1.39053 v -3.12021 z m 0.28828,-5.2099 -0.28828,-0.0209 v -2.58135 -2.58136 l 1.18697,0.0259 1.18696,0.0259 0.22052,0.2205 0.22052,0.22049 v 2.0506 c 0,1.12782 -0.0234,2.13415 -0.052,2.23627 -0.0968,0.34582 -0.30521,0.41342 -1.29343,0.41939 -0.49117,0.003 -1.02276,-0.004 -1.18131,-0.0155 z m 10.44327,0.52959 -0.0196,-7.76661 -1.38802,-0.0183 -1.38801,-0.0183 0.003,7.75904 c 10e-4,4.26748 0.0224,7.77894 0.0467,7.80326 0.0243,0.0243 0.65661,0.036 1.40511,0.0259 l 1.36089,-0.0183 z m 4.46551,7.54615 c 0.0447,-0.1399 0.23419,-0.65117 0.421,-1.13616 0.52049,-1.3513 0.61987,-1.61497 1.03552,-2.74714 0.57428,-1.56427 0.49541,-1.51947 0.87634,-0.49783 0.58375,1.56561 1.13386,3.02986 1.37203,3.65195 0.12856,0.33576 0.26556,0.69442 0.30447,0.79701 l 0.0707,0.18654 h 1.51955 c 1.20159,0 1.51956,-0.0185 1.51956,-0.0882 0,-0.0485 -0.0278,-0.11718 -0.0619,-0.15262 -0.034,-0.0354 -0.20617,-0.4002 -0.38256,-0.81058 -0.5834,-1.35724 -0.75813,-1.76005 -0.91215,-2.10275 -0.0838,-0.18653 -0.20541,-0.46124 -0.27015,-0.61047 -0.0648,-0.14923 -0.25788,-0.59182 -0.42919,-0.98354 -0.1713,-0.39173 -0.55716,-1.27431 -0.85746,-1.9613 -0.3003,-0.68699 -0.54599,-1.28758 -0.54599,-1.33465 0,-0.0723 0.55022,-1.42677 2.05035,-5.04722 0.42546,-1.0268 1.00202,-2.45617 1.00202,-2.48411 0,-0.0141 -0.66389,-0.0252 -1.47531,-0.0246 l -1.47532,0.001 -0.24845,0.72815 c -0.39641,1.16182 -1.41068,4.10992 -1.45234,4.22142 -0.0581,0.15558 -0.13706,-0.0208 -0.57513,-1.28492 -0.21404,-0.61769 -0.50368,-1.44357 -0.64364,-1.83529 -0.13995,-0.39172 -0.33839,-0.95641 -0.44097,-1.25486 l -0.18651,-0.54265 -1.46539,-0.0183 c -1.16907,-0.0146 -1.46539,-4.1e-4 -1.46539,0.0702 0,0.0487 0.44542,1.15575 0.98983,2.46019 0.54441,1.30443 1.13811,2.73798 1.31933,3.18566 0.18123,0.44768 0.42319,1.03989 0.53768,1.316 0.12873,0.31045 0.19177,0.55636 0.1652,0.64439 -0.0694,0.22977 -0.85956,2.09252 -2.62137,6.17928 -0.36991,0.85806 -0.68871,1.59826 -0.70845,1.6449 -0.0281,0.0663 0.28905,0.0848 1.45839,0.0848 h 1.49426 l 0.0814,-0.25436 z"
       id="path364"
       sodipodi:nodetypes="csssccssssscsscsscscscsscsssssssssssccccsscssscssscssssscsscccsscssssscssscssccsscccscssssscsscscssssssssssscscssssssccccscscsssscsscsssssscscccssscsssssscccssssssccccssssssccccssscsscccccsssssssssssscsccccsssssscsssscccccccccccccccsssssccssscssccccccccccccccccccscccccccccccscccccccccccsssccccscccssscsssssscsccscccccccccscssccccccscsscccsccssssssscccccccccccccscccccccccsccccssssccssccccsssssccscssscssssscscsccc" /></g></svg>
